<svg id="Layer_1" data-name="Layer 1" xmlns="http://www.w3.org/2000/svg" viewBox="0 0 269.95 40.91"><title>re search</title><path d="M29.9,40.86H23.47L14.83,24.75H6.28V40.86H0V.05H13.68c4.58,0,8.17,1.07,10.67,3.18s3.8,5.26,3.8,9.29a11.31,11.31,0,0,1-2.1,6.78,12.46,12.46,0,0,1-5.29,4.09L29.9,39.9Zm-5.83-1h4.67l-9.41-17,.54-.2a11.65,11.65,0,0,0,5.37-4,10.29,10.29,0,0,0,1.91-6.19C27.15,8.8,26,5.92,23.71,4S18,1.05,13.68,1.05H1V39.86H5.28V23.75H15.43ZM13.84,20.46H5.28V4.34h8.54a9.88,9.88,0,0,1,6.69,2.13,7.73,7.73,0,0,1,2.37,6,7.36,7.36,0,0,1-2.49,5.8A9.59,9.59,0,0,1,13.84,20.46Zm-7.56-1h7.56a8.65,8.65,0,0,0,5.89-1.9,6.35,6.35,0,0,0,2.15-5,6.78,6.78,0,0,0-2-5.3,8.93,8.93,0,0,0-6-1.87H6.28Z"/><path d="M60.8,40.86H34.51V.05h26V5.34H40.76V17.16H58v5.3H40.76V35.57h20Zm-25.29-1H59.8V36.57h-20V21.46H57v-3.3H39.76V4.34H59.53V1.05h-24Z"/><path d="M78.57,22.61q-6.76-1.93-9.83-4.77a9.1,9.1,0,0,1-3.08-7,9.61,9.61,0,0,1,3.76-7.78A15,15,0,0,1,79.2,0a16.26,16.26,0,0,1,7.31,1.59,12,12,0,0,1,5,4.37,11.23,11.23,0,0,1,1.76,6.1H88a7.3,7.3,0,0,0-2.29-5.7A9.37,9.37,0,0,0,79.2,4.29,9.52,9.52,0,0,0,73.14,6,5.7,5.7,0,0,0,71,10.76,5.13,5.13,0,0,0,73,14.88a20.32,20.32,0,0,0,7,3.08A32.54,32.54,0,0,1,87.82,21,11.79,11.79,0,0,1,92,25a10.07,10.07,0,0,1,1.35,5.28A9.3,9.3,0,0,1,89.56,38q-3.78,2.92-10.09,2.92a18.69,18.69,0,0,1-7.66-1.58A12.85,12.85,0,0,1,66.33,35a10.49,10.49,0,0,1-1.93-6.21h5.28a6.84,6.84,0,0,0,2.67,5.7,11.17,11.17,0,0,0,7.12,2.09,10.33,10.33,0,0,0,6.37-1.69,5.49,5.49,0,0,0,2.21-4.62,5.41,5.41,0,0,0-2-4.53C84.64,24.71,82.16,23.65,78.57,22.61Z"/><path d="M122.56,22H105.31V36.07h20v4.29H100.06V.55h25V4.84H105.31V17.66h17.25Z"/><path d="M153.87,29.94H137.19l-3.74,10.42H128L143.23.55h4.6l15.23,39.81h-5.39Zm-15.09-4.29h13.53L145.53,7Z"/><path d="M183,24.25h-9.35V40.36h-5.28V.55h13.18q6.72,0,10.35,3.06t3.62,8.91a10.71,10.71,0,0,1-2,6.48,11.92,11.92,0,0,1-5.59,4.13L197.29,40v.33h-5.63ZM173.67,20h8.06a9.09,9.09,0,0,0,6.23-2,6.85,6.85,0,0,0,2.31-5.42,7.2,7.2,0,0,0-2.21-5.67c-1.46-1.32-3.58-2-6.35-2h-8Z"/><path d="M232.18,27.73q-.74,6.32-4.66,9.74t-10.43,3.44a14.06,14.06,0,0,1-11.31-5.06q-4.25-5.06-4.25-13.54V18.48a22.71,22.71,0,0,1,2-9.76,14.83,14.83,0,0,1,5.62-6.46A15.6,15.6,0,0,1,217.55,0q6.34,0,10.18,3.54a14.83,14.83,0,0,1,4.45,9.8h-5.27q-.69-4.77-3-6.91a9,9,0,0,0-6.39-2.14A9.36,9.36,0,0,0,209.67,8q-2.86,3.72-2.86,10.59v3.85q0,6.49,2.71,10.32a8.71,8.71,0,0,0,7.57,3.83c2.92,0,5.15-.66,6.71-2s2.6-3.62,3.11-6.9Z"/><path d="M270,40.36h-5.28V22H244.6v18.4h-5.25V.55h5.25V17.66h20.07V.55H270Z"/></svg>